<?xml version="1.0" encoding="UTF-8"?>
<svg width="250px" height="250px" viewBox="0 0 250 250" version="1.1" xmlns="http://www.w3.org/2000/svg" xmlns:xlink="http://www.w3.org/1999/xlink">
    <!-- Generator: Sketch 40.3 (33839) - http://www.bohemiancoding.com/sketch -->
    <title>Group</title>
    <desc>Created with Sketch.</desc>
    <defs></defs>
    <g id="Page-1" stroke="none" stroke-width="1" fill="none" fill-rule="evenodd">
        <g id="Group">
            <rect id="Rectangle" fill="#252426" x="0" y="0" width="250" height="250"></rect>
            <circle id="Oval" fill="#323133" cx="125.5" cy="125.5" r="82.5"></circle>
            <path d="M153.840471,90.3222353 C153.560941,90.0776471 153.192118,89.9663529 152.819412,90.0103529 L112.701765,95.2010588 C112.056,95.2851765 111.573294,95.8338824 111.573294,96.4848235 L111.573294,104.271529 L111.573294,109.722353 L111.573294,143.414706 C109.325412,140.839412 105.819647,139.176471 101.868706,139.176471 C95.0784706,139.176471 89.5745882,144.069529 89.5745882,150.104 C89.5745882,156.138471 95.0784706,161.031529 101.868706,161.031529 C108.658941,161.031529 114.162824,156.138471 114.162824,150.104 C114.162824,149.674353 114.127882,149.252471 114.073529,148.834471 C114.125294,148.694706 114.162824,148.548471 114.162824,148.390588 L114.162824,110.858588 L151.692235,106.001765 L151.692235,130.472235 C149.443059,127.898235 145.937294,126.235294 141.986353,126.235294 C135.196118,126.235294 129.692235,131.128353 129.692235,137.162824 C129.692235,143.197294 135.196118,148.090353 141.986353,148.090353 C148.776588,148.090353 154.280471,143.197294 154.280471,137.162824 C154.280471,137.043765 154.264941,136.928588 154.261059,136.810824 C154.263647,136.775882 154.280471,136.746118 154.280471,136.711176 L154.280471,104.529059 L154.280471,99.0795294 L154.280471,91.2941176 C154.280471,90.9214118 154.12,90.5668235 153.840471,90.3222353 L153.840471,90.3222353 Z" id="Shape" fill="#37BC9B"></path>
            <g id="music-player" transform="translate(89.000000, 90.000000)">
                <g id="Capa_1"></g>
            </g>
        </g>
    </g>
</svg>